{"glyphs":{":":{"x_min":0,"x_max":255,"ha":255,"o":"m 60 493 l 196 493 l 196 345 l 60 346 z m 60 147 l 196 147 l 196 0 l 60 0 z"},"$":{"x_min":0,"x_max":511,"ha":511,"o":"m 218 722 l 293 722 l 293 653 q 419 638 457 510 l 353 468 q 323 555 259 555 q 228 555 208 536 q 189 516 189 488 q 189 460 208 445 q 226 430 287 407 q 354 383 392 361 q 430 339 453 301 q 476 263 476 211 q 476 133 429 80 q 382 28 293 19 l 293 -71 l 218 -71 l 218 18 q 71 33 36 189 l 152 220 q 168 122 259 122 q 301 122 321 143 q 341 164 341 193 q 341 224 321 240 q 301 256 232 280 q 170 302 135 323 q 101 344 79 382 q 57 419 57 470 q 57 536 96 588 q 135 641 218 653 z"},"?":{"x_min":0,"x_max":477,"ha":477,"o":"m 154 438 l 29 455 q 31 554 83 615 q 136 677 233 677 q 336 677 383 621 q 430 564 430 490 q 430 432 407 392 q 385 353 332 306 q 294 272 286 255 q 278 237 278 191 l 161 191 l 161 213 q 161 274 167 301 q 174 327 218 370 q 254 406 268 431 q 282 457 282 493 q 282 525 265 542 q 248 558 225 558 q 154 558 154 438 z m 154 142 l 285 142 l 285 0 l 154 0 z"},"<":{"x_min":0,"x_max":511,"ha":511,"o":"m 472 623 l 472 475 l 197 333 l 472 191 l 472 43 l 39 271 l 39 396 z"},"'":{"x_min":0,"x_max":341,"ha":341,"o":"m 106 667 l 235 667 l 216 374 l 125 374 z"},"=":{"x_min":0,"x_max":511,"ha":511,"o":"m 460 362 l 51 362 l 51 468 l 460 468 z m 460 199 l 51 199 l 51 304 l 460 304 z"},"a":{"x_min":0,"x_max":477,"ha":477,"o":"m 183 336 l 52 349 q 62 423 115 463 q 169 503 251 503 q 321 503 363 477 q 405 450 416 415 q 427 380 427 306 l 427 109 q 427 18 435 0 l 308 0 q 301 20 301 76 q 255 -10 166 -10 q 108 -10 72 24 q 36 59 36 125 q 36 207 90 252 q 145 297 290 306 l 290 325 q 290 374 280 393 q 270 412 241 412 q 188 412 183 336 z m 290 236 q 229 229 204 209 q 178 189 178 143 q 178 80 224 80 q 249 80 269 108 q 290 136 290 211 z"},"L":{"x_min":0,"x_max":426,"ha":426,"o":"m 63 667 l 209 667 l 209 125 l 424 125 l 424 0 l 63 0 z"},"3":{"x_min":0,"x_max":511,"ha":511,"o":"m 159 481 l 31 505 q 82 677 251 677 q 344 677 396 629 q 448 581 448 498 q 448 393 349 350 q 461 314 461 191 q 461 92 399 41 q 338 -10 243 -10 q 157 -10 94 35 q 31 80 16 187 l 146 208 q 155 109 232 109 q 268 109 289 133 q 310 157 310 201 q 310 292 208 292 l 167 292 l 167 399 l 208 399 q 240 399 259 406 q 277 412 290 431 q 302 451 302 482 q 302 563 235 563 q 177 563 159 481 z"},";":{"x_min":0,"x_max":255,"ha":255,"o":"m 60 493 l 196 493 l 196 345 l 60 346 z m 60 147 l 196 147 l 196 13 l 113 -158 l 60 -158 l 124 0 l 60 0 z"},"J":{"x_min":0,"x_max":324,"ha":324,"o":"m 118 667 l 264 667 l 264 224 q 264 140 252 93 q 239 45 200 18 q 161 -10 84 -10 q 51 -10 -5 0 l -5 123 q 30 116 54 116 q 93 116 105 136 q 118 157 118 224 z"},"V":{"x_min":0,"x_max":460,"ha":460,"o":"m -14 667 l 140 667 l 243 159 l 349 667 l 474 667 l 311 -3 l 146 0 z"},"\"":{"x_min":0,"x_max":511,"ha":511,"o":"m 98 667 l 227 667 l 208 374 l 117 374 z m 285 667 l 414 667 l 396 374 l 304 374 z"},"7":{"x_min":0,"x_max":511,"ha":511,"o":"m 69 667 l 465 667 l 465 554 q 306 349 303 0 l 144 0 q 148 305 339 536 l 58 536 z"},"S":{"x_min":0,"x_max":511,"ha":511,"o":"m 471 521 l 350 475 q 324 558 255 558 q 223 558 204 539 q 185 521 185 497 q 185 468 207 451 q 229 435 300 407 q 365 383 402 360 q 438 336 461 296 q 484 256 484 203 q 484 109 420 50 q 355 -10 248 -10 q 66 -10 16 173 l 144 209 q 167 109 251 109 q 289 109 313 129 q 336 148 336 181 q 336 205 320 224 q 303 244 244 265 q 167 292 129 315 q 92 337 67 378 q 43 419 43 472 q 43 562 101 619 q 159 677 254 677 q 428 677 471 521 z"},"}":{"x_min":0,"x_max":341,"ha":341,"o":"m 74 -166 l 74 -101 q 110 -99 119 -86 q 128 -73 128 -15 l 128 107 q 128 196 137 218 q 146 240 187 256 q 146 272 137 294 q 128 316 128 405 l 128 514 q 128 572 119 585 q 110 599 74 600 l 74 666 q 108 667 119 667 q 177 667 199 655 q 221 644 235 615 q 249 586 249 514 l 249 401 l 249 356 q 249 322 258 310 q 267 298 297 297 l 297 216 q 272 215 262 206 q 251 197 250 183 q 249 168 249 112 l 249 -15 q 249 -81 236 -112 q 224 -143 199 -155 q 173 -167 120 -167 q 106 -167 74 -166 z"},"Z":{"x_min":0,"x_max":460,"ha":460,"o":"m 21 667 l 450 667 l 450 562 l 171 119 l 458 119 l 458 0 l 1 0 l 1 102 l 282 547 l 21 547 z"},"x":{"x_min":0,"x_max":375,"ha":375,"o":"m -5 493 l 144 493 l 196 379 l 260 493 l 379 493 l 252 275 l 399 0 l 250 0 l 178 147 l 95 0 l -24 0 l 122 252 z"},")":{"x_min":0,"x_max":341,"ha":341,"o":"m 169 -167 l 62 -167 q 108 -83 136 30 q 163 143 163 250 q 163 356 136 469 q 108 583 62 667 l 169 667 q 290 486 290 250 q 290 14 169 -167 z"},"&":{"x_min":0,"x_max":647,"ha":647,"o":"m 511 381 l 620 362 q 593 244 529 148 q 563 112 597 112 q 601 112 620 113 l 620 0 q 592 -7 569 -7 q 500 -7 439 56 q 358 -10 258 -10 q 148 -10 97 49 q 46 108 46 187 q 46 315 197 379 q 135 464 135 528 q 135 588 184 633 q 233 677 311 677 q 390 677 436 631 q 482 585 482 518 q 482 417 367 357 l 459 235 q 491 287 511 381 z m 310 434 q 370 467 370 525 q 370 549 357 565 q 344 582 318 582 q 293 582 280 567 q 266 552 266 529 q 266 494 310 434 z m 253 302 q 185 261 185 195 q 185 153 210 126 q 235 100 280 100 q 333 100 374 139 z"},"_":{"x_min":0,"x_max":500,"ha":500,"o":"m 0 -57 l 500 -57 l 500 -146 l 0 -146 z"},"v":{"x_min":0,"x_max":358,"ha":358,"o":"m -11 493 l 122 493 l 189 202 l 258 493 l 373 493 l 237 0 l 128 0 z"},"O":{"x_min":0,"x_max":562,"ha":562,"o":"m 523 333 q 523 -10 281 -10 q 161 -10 100 77 q 39 165 39 333 q 39 677 281 677 q 399 677 461 591 q 523 505 523 333 z m 369 333 q 369 468 348 513 q 327 558 281 558 q 235 558 214 513 q 193 468 193 333 q 193 202 214 155 q 235 109 281 109 q 326 109 347 153 q 369 198 369 333 z"},"(":{"x_min":0,"x_max":341,"ha":341,"o":"m 171 667 l 279 667 q 177 478 177 250 q 177 22 279 -167 l 171 -167 q 50 13 50 250 q 50 487 171 667 z"},"C":{"x_min":0,"x_max":545,"ha":545,"o":"m 387 243 l 522 234 q 515 126 454 58 q 392 -10 291 -10 q 168 -10 104 81 q 39 172 39 333 q 39 494 103 585 q 167 677 293 677 q 501 677 520 419 l 386 409 q 381 558 293 558 q 248 558 220 510 q 193 462 193 324 q 193 201 218 155 q 243 109 293 109 q 373 109 387 243 z"},"W":{"x_min":0,"x_max":715,"ha":715,"o":"m -5 667 l 145 667 l 214 205 l 302 667 l 436 667 l 518 204 l 600 667 l 723 667 l 580 -3 l 449 -3 l 360 460 l 269 -3 l 139 -3 z"},"A":{"x_min":0,"x_max":511,"ha":511,"o":"m 181 667 l 328 667 l 519 0 l 369 0 l 335 138 l 148 138 l 115 0 l -20 0 z m 308 252 l 241 524 l 176 252 z"},"f":{"x_min":0,"x_max":290,"ha":290,"o":"m 206 493 l 293 493 l 293 385 l 206 385 l 206 0 l 74 0 l 74 385 l 18 385 l 18 493 l 74 493 q 75 566 85 602 q 96 638 132 666 q 167 693 229 693 q 265 693 298 688 l 298 581 q 282 583 268 583 q 228 583 217 566 q 206 549 206 493 z"},"Q":{"x_min":0,"x_max":562,"ha":562,"o":"m 499 -23 l 499 -129 q 467 -138 436 -138 q 311 -138 303 -9 q 285 -10 275 -10 q 167 -10 103 73 q 39 155 39 333 q 39 677 281 677 q 400 677 462 590 q 523 503 523 339 q 523 222 496 142 q 469 63 401 19 q 401 -10 413 -20 q 425 -31 449 -31 q 471 -31 499 -23 z m 369 333 q 369 468 348 513 q 327 558 281 558 q 235 558 214 513 q 193 468 193 333 q 193 202 214 155 q 235 109 281 109 q 326 109 347 153 q 369 198 369 333 z"},"w":{"x_min":0,"x_max":579,"ha":579,"o":"m -8 493 l 125 493 l 184 193 l 239 493 l 373 493 l 417 193 l 484 493 l 592 493 l 468 0 l 353 0 l 290 335 l 228 0 l 116 0 z"},"-":{"x_min":0,"x_max":272,"ha":272,"o":"m 37 307 l 236 307 l 236 199 l 37 199 z"},"E":{"x_min":0,"x_max":477,"ha":477,"o":"m 63 667 l 468 667 l 468 552 l 209 552 l 209 397 l 411 397 l 411 283 l 209 283 l 209 119 l 468 119 l 468 0 l 63 0 z"},"s":{"x_min":0,"x_max":409,"ha":409,"o":"m 376 375 l 278 345 q 258 412 206 412 q 163 412 163 369 q 163 345 179 332 q 195 319 245 302 q 302 282 328 267 q 354 251 373 221 q 391 190 391 151 q 391 83 341 36 q 292 -10 204 -10 q 37 -10 19 137 l 128 154 q 142 81 206 81 q 261 81 261 126 q 261 151 245 164 q 229 176 182 191 q 97 218 65 257 q 34 295 34 346 q 34 417 84 460 q 134 503 209 503 q 340 503 376 375 z"},">":{"x_min":0,"x_max":511,"ha":511,"o":"m 39 43 l 39 192 l 314 333 l 40 476 l 39 623 l 472 396 l 472 271 z"},"l":{"x_min":0,"x_max":238,"ha":238,"o":"m 50 667 l 188 667 l 188 0 l 50 0 z"},"8":{"x_min":0,"x_max":511,"ha":511,"o":"m 378 364 q 481 303 481 191 q 481 107 422 48 q 363 -10 249 -10 q 138 -10 84 41 q 29 92 29 173 q 29 222 52 259 q 75 295 138 329 q 48 385 48 485 q 48 563 101 620 q 154 677 261 677 q 362 677 413 630 q 463 583 463 506 q 463 413 378 364 z m 290 408 q 337 453 337 500 q 337 536 318 559 q 299 582 263 582 q 229 582 208 561 q 186 541 186 509 q 186 471 220 447 q 254 423 290 408 z m 223 281 q 159 242 159 183 q 159 141 184 116 q 209 91 254 91 q 295 91 320 114 q 344 137 344 168 q 344 194 324 220 q 304 245 223 281 z"},"\\":{"x_min":0,"x_max":528,"ha":528,"o":"m 141 667 l 547 -167 l 455 -167 l 48 667 z"},"e":{"x_min":0,"x_max":460,"ha":460,"o":"m 430 224 l 171 224 l 171 196 q 171 130 189 107 q 208 85 237 85 q 300 85 308 169 l 430 162 q 397 -10 234 -10 q 134 -10 82 58 q 29 125 29 239 q 29 368 85 435 q 140 503 233 503 q 317 503 374 443 q 430 383 430 224 z m 300 303 q 301 312 301 317 q 301 412 236 412 q 173 412 172 303 z"},"b":{"x_min":0,"x_max":477,"ha":477,"o":"m 51 667 l 186 667 l 186 447 q 226 500 289 500 q 357 500 402 438 q 448 377 448 250 q 448 127 403 58 q 359 -10 273 -10 q 189 -10 158 64 q 144 39 132 0 l 51 0 z m 186 205 q 186 137 199 111 q 211 85 244 85 q 279 85 292 122 q 306 159 306 246 q 306 331 293 370 q 280 409 246 409 q 186 409 186 318 z"},"%":{"x_min":0,"x_max":665,"ha":665,"o":"m 291 499 q 291 415 256 371 q 221 327 159 327 q 98 327 63 370 q 27 413 27 499 q 27 583 62 626 q 97 670 159 670 q 221 670 256 626 q 291 582 291 499 z m 196 499 q 196 561 186 579 q 177 596 159 596 q 140 596 131 577 q 122 557 122 499 q 122 436 132 418 q 141 401 159 401 q 179 401 187 421 q 196 441 196 499 z m 453 667 l 528 667 l 214 0 l 138 0 z m 637 168 q 637 84 602 40 q 567 -3 505 -3 q 444 -3 409 41 q 374 84 374 168 q 374 252 409 296 q 444 339 505 339 q 566 339 602 296 q 637 253 637 168 z m 542 168 q 542 230 533 248 q 523 266 505 266 q 486 266 477 246 q 469 226 469 168 q 469 106 478 88 q 488 70 505 70 q 525 70 534 91 q 542 111 542 168 z"},"m":{"x_min":0,"x_max":698,"ha":698,"o":"m 51 493 l 181 493 l 181 426 q 216 503 301 503 q 389 503 407 426 q 440 503 527 503 q 575 503 604 485 q 632 468 644 437 q 655 407 655 322 l 655 0 l 518 0 l 518 308 q 518 363 510 380 q 502 396 475 396 q 443 396 433 375 q 423 353 423 287 l 423 0 l 286 0 l 286 312 q 286 365 278 381 q 271 396 244 396 q 210 396 199 374 q 188 351 188 287 l 188 0 l 51 0 z"},"#":{"x_min":0,"x_max":511,"ha":511,"o":"m 169 667 l 256 667 l 227 474 l 325 474 l 354 667 l 441 667 l 412 474 l 501 474 l 489 393 l 399 393 l 383 286 l 473 286 l 461 205 l 371 205 l 340 0 l 254 0 l 285 205 l 186 205 l 155 0 l 68 0 l 100 205 l 10 205 l 22 286 l 112 286 l 128 393 l 38 393 l 50 474 l 140 474 z m 214 393 l 198 286 l 297 286 l 313 393 z"},",":{"x_min":0,"x_max":255,"ha":255,"o":"m 60 147 l 196 147 l 196 13 l 113 -158 l 60 -158 l 124 0 l 60 0 z"},"n":{"x_min":0,"x_max":477,"ha":477,"o":"m 51 493 l 181 493 l 181 426 q 215 503 305 503 q 353 503 385 481 q 416 459 425 426 q 434 392 434 323 l 434 0 l 296 0 l 296 323 q 296 373 283 385 q 271 396 249 396 q 212 396 200 374 q 188 351 188 289 l 188 0 l 51 0 z"},"h":{"x_min":0,"x_max":477,"ha":477,"o":"m 51 667 l 188 667 l 188 441 q 226 503 310 503 q 360 503 389 480 q 418 457 426 421 q 434 385 434 316 l 434 0 l 296 0 l 296 316 q 296 365 287 381 q 278 396 250 396 q 222 396 205 381 q 188 366 188 312 l 188 0 l 51 0 z"},"z":{"x_min":0,"x_max":358,"ha":358,"o":"m 37 493 l 345 493 l 345 405 l 162 98 l 350 98 l 350 0 l 20 0 l 20 98 l 199 396 l 37 396 z"},"B":{"x_min":0,"x_max":562,"ha":562,"o":"m 63 667 l 291 667 q 371 667 411 654 q 452 641 480 598 q 507 555 507 491 q 507 379 412 348 q 525 308 525 184 q 525 119 495 74 q 464 30 419 15 q 374 0 291 0 l 63 0 z m 204 397 l 251 397 q 322 397 340 423 q 358 448 358 481 q 358 511 340 535 q 322 559 262 559 l 204 559 z m 204 115 l 275 115 q 376 115 376 202 q 376 250 351 270 q 326 290 275 290 l 204 290 z"},"K":{"x_min":0,"x_max":528,"ha":528,"o":"m 63 667 l 209 667 l 209 389 l 372 667 l 520 667 l 353 421 l 534 0 l 382 0 l 265 307 l 209 227 l 209 0 l 63 0 z"},"R":{"x_min":0,"x_max":545,"ha":545,"o":"m 63 667 l 272 667 q 333 667 366 661 q 398 655 432 631 q 465 606 484 563 q 502 521 502 467 q 502 342 409 292 l 531 0 l 372 0 l 283 264 l 209 264 l 209 0 l 63 0 z m 209 559 l 209 372 l 274 372 q 360 372 360 468 q 360 501 347 522 q 334 543 318 551 q 301 559 268 559 z"},"T":{"x_min":0,"x_max":392,"ha":392,"o":"m -12 667 l 404 667 l 404 542 l 268 542 l 268 0 l 121 0 l 121 542 l -12 542 z"},"P":{"x_min":0,"x_max":511,"ha":511,"o":"m 63 667 l 255 667 q 342 667 390 652 q 438 637 471 586 q 504 534 504 458 q 504 385 478 337 q 451 289 405 268 q 358 247 261 247 l 209 247 l 209 0 l 63 0 z m 209 559 l 209 361 l 255 361 q 315 361 332 389 q 350 417 350 461 q 350 499 336 522 q 323 545 305 552 q 287 559 255 559 z"},"|":{"x_min":0,"x_max":500,"ha":500,"o":"m 175 667 l 325 667 l 325 -167 l 175 -167 z"},"t":{"x_min":0,"x_max":307,"ha":307,"o":"m 71 645 l 205 649 l 205 493 l 296 493 l 296 385 l 205 385 l 205 204 q 205 153 207 138 q 209 124 222 114 q 234 104 264 104 q 279 104 303 104 l 303 0 q 257 -10 219 -10 q 156 -10 123 14 q 90 38 81 74 q 71 110 71 188 l 71 385 l 17 385 l 17 493 l 71 493 z"},"M":{"x_min":0,"x_max":750,"ha":750,"o":"m 63 667 l 278 667 l 372 255 l 478 667 l 687 667 l 687 0 l 549 0 l 549 558 l 413 0 l 307 0 l 182 558 l 182 0 l 63 0 z"},"g":{"x_min":0,"x_max":460,"ha":460,"o":"m 470 574 l 470 484 q 455 488 440 488 q 397 488 388 444 q 425 405 425 345 q 425 278 375 238 q 325 198 246 198 q 216 198 182 206 q 150 188 150 166 q 150 147 168 141 q 186 135 267 131 q 341 126 378 116 q 415 106 439 74 q 464 42 464 -9 q 464 -174 223 -174 q 21 -174 21 -57 q 21 8 102 35 q 37 65 37 121 q 37 184 122 229 q 49 265 49 352 q 49 426 99 464 q 150 503 234 503 q 291 503 340 481 q 345 534 366 557 q 387 579 432 579 q 454 579 470 574 z m 283 350 q 283 429 239 429 q 213 429 202 410 q 191 391 191 346 q 191 271 238 271 q 262 271 272 289 q 283 307 283 350 z m 178 21 q 134 1 134 -38 q 134 -88 248 -88 q 345 -88 345 -36 q 345 -17 334 -5 q 324 7 307 10 q 291 13 239 16 q 208 18 178 21 z"},"j":{"x_min":0,"x_max":238,"ha":238,"o":"m 194 534 l 54 534 l 54 670 l 194 670 z m 55 493 l 193 493 l 193 16 q 193 -60 185 -98 q 176 -136 145 -158 q 114 -181 65 -181 q 35 -181 -8 -174 l -8 -61 q 2 -62 10 -62 q 40 -62 48 -47 q 55 -32 55 20 z"},"i":{"x_min":0,"x_max":238,"ha":238,"o":"m 189 534 l 49 534 l 49 670 l 189 670 z m 50 493 l 188 493 l 188 0 l 50 0 z"},"y":{"x_min":0,"x_max":358,"ha":358,"o":"m -14 493 l 124 493 l 190 192 l 254 493 l 373 493 l 225 -8 q 203 -80 188 -108 q 173 -137 143 -156 q 112 -175 65 -175 q 37 -175 7 -167 l 7 -59 q 27 -62 45 -62 q 85 -62 100 -48 q 115 -35 128 9 z"},"@":{"x_min":0,"x_max":630,"ha":630,"o":"m 397 508 l 465 508 l 437 304 q 431 264 431 245 q 431 210 453 210 q 483 210 507 260 q 531 309 531 379 q 531 490 479 552 q 428 615 332 615 q 233 615 169 540 q 105 464 105 333 q 105 208 167 131 q 229 54 343 54 q 437 54 516 108 l 543 43 q 446 -20 338 -20 q 194 -20 106 76 q 19 171 19 331 q 19 486 105 587 q 191 688 332 688 q 466 688 539 604 q 613 520 613 389 q 613 278 560 206 q 507 135 440 135 q 383 135 366 191 q 336 134 280 134 q 235 134 206 179 q 177 224 177 299 q 177 391 219 453 q 260 515 319 515 q 368 515 391 463 z m 358 357 q 358 424 324 424 q 300 424 284 390 q 268 357 268 300 q 268 225 306 225 q 358 225 358 357 z"},".":{"x_min":0,"x_max":255,"ha":255,"o":"m 60 147 l 196 147 l 196 0 l 60 0 z"},"p":{"x_min":0,"x_max":477,"ha":477,"o":"m 51 493 l 178 493 l 178 419 q 218 500 290 500 q 358 500 403 439 q 448 379 448 255 q 448 125 404 59 q 360 -7 280 -7 q 223 -7 186 37 l 186 -167 l 51 -167 z m 186 202 q 186 131 198 110 q 209 88 244 88 q 275 88 291 117 q 306 145 306 254 q 306 345 292 377 q 279 409 248 409 q 222 409 204 389 q 186 369 186 295 z"},"X":{"x_min":0,"x_max":477,"ha":477,"o":"m 5 667 l 168 667 l 248 493 l 332 667 l 472 667 l 314 365 l 492 0 l 332 0 l 234 218 l 125 0 l -15 0 l 168 342 z"},"*":{"x_min":0,"x_max":511,"ha":511,"o":"m 213 667 l 297 667 l 285 544 l 386 612 l 427 538 l 318 489 l 427 441 l 386 367 l 285 435 l 297 312 l 213 312 l 226 435 l 125 367 l 84 441 l 193 489 l 84 538 l 125 612 l 226 544 z"},"Y":{"x_min":0,"x_max":443,"ha":443,"o":"m -28 667 l 133 667 l 227 423 l 328 667 l 471 667 l 286 282 l 286 0 l 139 0 l 139 282 z"},"c":{"x_min":0,"x_max":443,"ha":443,"o":"m 419 312 l 291 307 q 288 352 276 375 q 265 398 237 398 q 167 398 167 253 q 167 168 184 135 q 201 101 234 101 q 286 101 291 192 l 419 184 q 402 -10 226 -10 q 130 -10 80 54 q 29 118 29 245 q 29 371 82 437 q 135 503 231 503 q 404 503 419 312 z"},"!":{"x_min":0,"x_max":341,"ha":341,"o":"m 83 667 l 258 667 l 215 199 l 125 199 z m 102 147 l 238 147 l 238 0 l 102 0 z"},"/":{"x_min":0,"x_max":528,"ha":528,"o":"m 387 667 l 479 667 l 73 -167 l -20 -167 z"},"[":{"x_min":0,"x_max":341,"ha":341,"o":"m 73 667 l 279 667 l 279 604 l 195 604 l 195 -104 l 279 -104 l 279 -167 l 73 -167 z"},"6":{"x_min":0,"x_max":511,"ha":511,"o":"m 479 500 l 360 464 q 344 570 277 570 q 235 570 211 527 q 188 484 187 345 q 228 420 309 420 q 382 420 433 365 q 483 309 483 211 q 483 103 424 46 q 365 -10 272 -10 q 51 -10 51 325 q 51 506 112 591 q 173 677 281 677 q 360 677 411 632 q 462 587 479 500 z m 341 211 q 341 313 269 313 q 193 313 193 202 q 193 148 213 122 q 233 96 267 96 q 341 96 341 211 z"},"r":{"x_min":0,"x_max":307,"ha":307,"o":"m 51 493 l 172 493 l 172 374 q 205 500 289 500 q 299 500 312 497 l 312 363 q 297 365 289 365 q 188 365 188 212 l 188 0 l 51 0 z"},"2":{"x_min":0,"x_max":511,"ha":511,"o":"m 161 432 l 28 458 q 61 677 249 677 q 350 677 403 620 q 456 564 456 482 q 456 398 397 318 q 339 238 177 130 l 465 130 l 455 0 l 28 0 l 28 130 q 211 287 256 352 q 302 417 302 475 q 302 558 239 558 q 202 558 184 525 q 167 492 161 432 z"},"{":{"x_min":0,"x_max":341,"ha":341,"o":"m 267 666 l 267 600 q 231 599 221 586 q 212 572 212 514 l 212 405 q 212 316 203 295 q 194 273 153 256 q 194 240 203 218 q 212 196 212 107 l 212 -15 q 212 -72 221 -85 q 230 -99 267 -101 l 267 -166 q 232 -167 221 -167 q 176 -167 153 -160 q 130 -154 111 -125 q 92 -97 92 -15 l 92 157 q 91 191 82 203 q 73 214 43 216 l 43 297 q 77 298 84 312 q 92 326 92 401 l 92 514 q 92 610 120 639 q 148 667 221 667 q 235 667 267 666 z"},"9":{"x_min":0,"x_max":511,"ha":511,"o":"m 43 152 l 171 177 q 184 96 242 96 q 324 96 324 286 l 324 307 q 285 247 208 247 q 121 247 74 313 q 28 379 28 459 q 28 548 81 613 q 134 677 239 677 q 332 677 380 627 q 428 578 444 501 q 460 425 460 345 q 460 -10 236 -10 q 81 -10 43 152 z m 318 468 q 318 517 298 543 q 277 570 242 570 q 212 570 191 545 q 170 520 170 468 q 170 366 244 366 q 318 366 318 468 z"}," ":{"x_min":0,"x_max":187,"ha":187,"o":""},"I":{"x_min":0,"x_max":272,"ha":272,"o":"m 63 667 l 209 667 l 209 0 l 63 0 z"},"H":{"x_min":0,"x_max":579,"ha":579,"o":"m 63 667 l 209 667 l 209 397 l 370 397 l 370 667 l 516 667 l 516 0 l 370 0 l 370 272 l 209 272 l 209 0 l 63 0 z"},"4":{"x_min":0,"x_max":511,"ha":511,"o":"m 252 677 l 411 677 l 411 271 l 486 271 l 486 157 l 411 157 l 411 0 l 265 0 l 265 157 l 25 157 l 25 271 z m 276 263 l 276 537 l 128 263 z"},"~":{"x_min":0,"x_max":667,"ha":667,"o":"m 166 552 l 93 613 q 147 749 242 749 q 275 749 354 715 q 413 689 431 689 q 472 689 503 751 l 576 691 q 525 557 419 557 q 389 557 309 592 q 258 614 235 614 q 197 614 166 552 z"},"D":{"x_min":0,"x_max":562,"ha":562,"o":"m 63 667 l 221 667 q 323 667 387 639 q 452 611 490 537 q 529 463 529 336 q 529 247 505 177 q 482 107 444 67 q 406 27 358 14 q 310 0 238 0 l 63 0 z m 209 552 l 209 115 l 234 115 q 285 115 313 134 q 341 154 357 202 q 374 251 374 343 q 374 428 356 474 q 337 520 310 536 q 282 552 234 552 z"},"^":{"x_min":0,"x_max":500,"ha":500,"o":"m 147 351 l 15 351 l 167 670 l 333 670 l 484 351 l 353 351 l 250 570 z"},"0":{"x_min":0,"x_max":511,"ha":511,"o":"m 478 341 q 478 161 426 75 q 374 -10 255 -10 q 133 -10 83 78 q 33 167 33 325 q 33 506 85 592 q 137 677 255 677 q 378 677 428 588 q 478 500 478 341 z m 323 333 q 323 485 310 528 q 296 570 255 570 q 219 570 203 534 q 187 498 187 333 q 187 171 202 134 q 218 97 255 97 q 292 97 307 132 q 323 167 323 333 z"},"F":{"x_min":0,"x_max":443,"ha":443,"o":"m 63 667 l 458 667 l 458 552 l 209 552 l 209 378 l 401 378 l 401 264 l 209 264 l 209 0 l 63 0 z"},"`":{"x_min":0,"x_max":460,"ha":460,"o":"m 318 587 l 277 546 l 97 659 l 151 741 z"},"k":{"x_min":0,"x_max":460,"ha":460,"o":"m 51 667 l 188 667 l 188 303 l 327 493 l 452 493 l 328 328 l 464 0 l 316 0 l 239 229 l 188 160 l 188 0 l 51 0 z"},"u":{"x_min":0,"x_max":477,"ha":477,"o":"m 44 493 l 182 493 l 182 177 q 182 129 190 113 q 199 97 229 97 q 255 97 269 110 q 283 123 286 146 q 289 169 289 242 l 289 493 l 427 493 l 427 0 l 297 0 l 297 67 q 268 17 239 3 q 210 -10 170 -10 q 117 -10 89 12 q 61 34 52 67 q 44 101 44 172 z"},"]":{"x_min":0,"x_max":341,"ha":341,"o":"m 268 -167 l 62 -167 l 62 -104 l 146 -104 l 146 604 l 62 604 l 62 667 l 268 667 z"},"U":{"x_min":0,"x_max":579,"ha":579,"o":"m 63 667 l 209 667 l 209 286 q 209 205 217 173 q 224 142 247 125 q 271 109 304 109 q 341 109 362 127 q 384 145 389 175 q 394 205 394 286 l 394 667 l 516 667 l 516 292 q 516 179 503 124 q 490 69 437 29 q 384 -10 292 -10 q 205 -10 155 19 q 105 48 84 100 q 63 153 63 286 z"},"o":{"x_min":0,"x_max":460,"ha":460,"o":"m 431 247 q 431 -10 230 -10 q 30 -10 30 247 q 30 503 230 503 q 431 503 431 247 z m 289 247 q 289 341 276 374 q 263 407 230 407 q 199 407 186 376 q 172 344 172 247 q 172 156 184 121 q 195 86 230 86 q 264 86 276 121 q 289 156 289 247 z"},"N":{"x_min":0,"x_max":562,"ha":562,"o":"m 58 667 l 220 667 l 392 252 l 392 667 l 505 667 l 505 0 l 374 0 l 171 482 l 171 0 l 58 0 z"},"+":{"x_min":0,"x_max":511,"ha":511,"o":"m 311 386 l 460 386 l 460 280 l 311 280 l 311 129 l 201 129 l 201 280 l 51 280 l 51 386 l 201 386 l 201 538 l 311 538 z"},"G":{"x_min":0,"x_max":580,"ha":580,"o":"m 297 355 l 528 355 l 528 0 l 466 0 l 447 76 q 394 -10 286 -10 q 172 -10 106 79 q 39 169 39 320 q 39 485 105 581 q 170 677 299 677 q 503 677 528 448 l 396 427 q 383 558 302 558 q 252 558 223 509 q 193 461 193 326 q 193 207 222 158 q 251 109 307 109 q 396 109 396 241 l 297 241 z"},"q":{"x_min":0,"x_max":477,"ha":477,"o":"m 351 493 l 427 493 q 422 457 422 367 l 422 -167 l 287 -167 l 287 51 q 249 -7 186 -7 q 116 -7 73 58 q 30 123 30 239 q 30 378 75 439 q 121 500 196 500 q 270 500 313 429 q 335 454 351 493 z m 287 297 q 287 365 273 387 q 258 409 229 409 q 195 409 183 382 q 171 355 171 258 q 171 150 184 119 q 197 88 229 88 q 256 88 272 114 q 287 139 287 224 z"},"d":{"x_min":0,"x_max":477,"ha":477,"o":"m 292 667 l 427 667 l 427 0 l 300 0 l 300 82 q 269 -7 188 -7 q 108 -7 69 62 q 30 132 30 245 q 30 373 74 437 q 119 500 194 500 q 263 500 292 447 z m 292 287 q 292 359 277 384 q 261 409 232 409 q 197 409 185 375 q 172 340 172 233 q 172 153 186 121 q 200 88 231 88 q 257 88 275 110 q 292 132 292 199 z"},"1":{"x_min":0,"x_max":511,"ha":511,"o":"m 247 672 l 358 672 l 358 109 l 469 109 l 469 0 l 100 0 l 100 109 l 212 109 l 212 502 q 162 451 100 419 l 100 549 q 189 596 247 672 z"},"5":{"x_min":0,"x_max":511,"ha":511,"o":"m 86 667 l 443 667 l 429 536 l 193 536 l 185 386 q 227 443 299 443 q 370 443 424 391 q 478 338 478 225 q 478 108 416 49 q 354 -10 254 -10 q 162 -10 102 41 q 42 92 34 178 l 167 200 q 178 109 253 109 q 336 109 336 217 q 336 265 314 294 q 292 324 251 324 q 197 324 178 272 l 63 294 z"}}}
